<svg width="128" height="128" viewBox="0 0 128 128" fill="none" xmlns="http://www.w3.org/2000/svg">
  <path d="M12 29H29.0418L54.069 71.2381L41.8958 29H71.3056H91.3333C96.2593 29 100.602 29.4861 104.361 30.4583C108.185 31.3657 111.718 32.8565 114.958 34.9306V51.2639C112.106 48.9954 108.866 47.375 105.236 46.4028C101.671 45.3657 97.5556 44.8472 92.8889 44.8472C88.8704 44.8472 85.2731 45.6574 82.0972 47.2778C78.9861 48.8333 76.5231 51.1019 74.7083 54.0833C72.8935 57.0648 71.9861 60.5324 71.9861 64.4861C71.9861 70.6435 73.7685 75.5046 77.3333 79.0694C80.963 82.6343 85.8565 84.4167 92.0139 84.4167C95.4491 84.4167 98.3333 83.8333 100.667 82.6667V71.7778H90.2639V59.7222H117V93.5556C110.065 97.7685 101.509 99.875 91.3333 99.875H71.3056V99.9722H54.3611L29.2366 57.6326L41.8958 99.9722H12V29Z"/>
  <style>
        path { fill: #000; }
        @media (prefers-color-scheme: dark) {
            path { fill: #FFF; }
        }
    </style>
</svg>
