<svg width="15" height="18" viewBox="0 0 15 18" fill="none" xmlns="http://www.w3.org/2000/svg">
<path d="M4.55801 17.3136C5.07772 17.4046 5.2726 17.0928 5.2726 16.8199C5.2726 16.5731 5.25961 15.7545 5.25961 14.884M5.25961 14.884C2.6481 15.3648 1.97249 14.2474 1.76461 13.6627C1.64768 13.3639 1.14097 12.4414 0.699219 12.1946M5.25961 14.884V13.9616C5.25961 13.0268 5.65922 12.3735 5.9742 12.0387C3.66153 11.7788 1.24491 10.8823 1.24491 6.90659C1.24491 5.77623 1.64768 4.84077 2.3103 4.11319C2.20636 3.85333 1.84256 2.78794 2.41424 1.35876C2.41424 1.35876 3.28474 1.08592 5.2726 2.42415C6.10413 2.19028 6.98762 2.07335 7.87112 2.07335C8.75461 2.07335 9.63811 2.19028 10.4696 2.42415C12.4575 1.07292 13.328 1.35876 13.328 1.35876C13.8997 2.78794 13.5359 3.85333 13.4319 4.11319C14.0946 4.84077 14.4973 5.76324 14.4973 6.90659C14.4973 10.8953 12.0677 11.7788 9.75504 12.0387C10.1318 12.3635 10.4436 13.0268 10.4566 13.9616C10.4566 15.3518 10.4436 16.4691 10.4436 16.8199C10.4436 17.0928 10.6385 17.4176 11.1582 17.3136" stroke="#a3a3a3" stroke-linecap="round" stroke-linejoin="round"/>
</svg>
