<svg width="19" height="18" viewBox="0 0 19 18" fill="none" xmlns="http://www.w3.org/2000/svg">
<path d="M10.3403 7.73142C10.8185 6.99477 11.6716 5.94882 13.5753 5.94882C15.9361 5.94882 17.7053 7.49085 17.7053 10.808V17H14.1177V11.2249C14.1177 9.77251 13.5992 8.78334 12.3007 8.78334C11.3086 8.78334 10.7183 9.45125 10.4598 10.0953C10.3642 10.3254 10.3403 10.6481 10.3403 10.9709V17H6.7542C6.7542 17 6.79903 7.21741 6.7542 6.20433H10.3403V7.73142ZM10.3403 7.73142V7.76877H10.3164L10.3403 7.73142ZM4.79978 17V6.20433H1.21218V17H4.79978ZM3.00672 4.72955C4.25738 4.72955 5.03586 3.90176 5.03586 2.86477C5.01345 1.80538 4.25887 1 3.03063 1C1.80239 1 1 1.80687 1 2.86477C1 3.90176 1.77848 4.72955 2.98282 4.72955H3.00672Z" stroke="#6b7280" stroke-linejoin="round"/>
</svg>
