<svg width="18" height="14" viewBox="0 0 18 14" fill="none" xmlns="http://www.w3.org/2000/svg">
<path d="M1 2.85191C1 2.30183 1.21071 1.77428 1.58579 1.38531C1.96086 0.99635 2.46957 0.777832 3 0.777832H15C15.5304 0.777832 16.0391 0.99635 16.4142 1.38531C16.7893 1.77428 17 2.30183 17 2.85191M1 2.85191V11.1482C1 11.6983 1.21071 12.2258 1.58579 12.6148C1.96086 13.0038 2.46957 13.2223 3 13.2223H15C15.5304 13.2223 16.0391 13.0038 16.4142 12.6148C16.7893 12.2258 17 11.6983 17 11.1482V2.85191M1 2.85191L9 8.16672L17 2.85191" stroke="#6b7280"/>
</svg>
