<svg width="18" height="18" viewBox="0 0 18 18" fill="none" xmlns="http://www.w3.org/2000/svg">
<path d="M2.88442 1.51128C3.05942 1.33624 3.26964 1.20042 3.50115 1.11285C3.73265 1.02529 3.98014 0.987972 4.22717 1.00339C4.47421 1.0188 4.71513 1.0866 4.93396 1.20227C5.15278 1.31794 5.34449 1.47883 5.49636 1.67428L7.29032 3.98022C7.61931 4.40321 7.73531 4.9542 7.60531 5.47419L7.05832 7.66413C7.03024 7.77757 7.03187 7.89633 7.06304 8.00895C7.09422 8.12158 7.1539 8.22427 7.23632 8.30712L9.69326 10.7641C9.7762 10.8466 9.87906 10.9064 9.99188 10.9376C10.1047 10.9688 10.2237 10.9703 10.3372 10.9421L12.5262 10.3951C12.7828 10.3313 13.0506 10.3265 13.3093 10.381C13.5681 10.4356 13.8111 10.5481 14.0202 10.7101L16.3261 12.504C17.1551 13.149 17.2311 14.374 16.4891 15.1149L15.4551 16.1489C14.7151 16.8889 13.6092 17.2139 12.5782 16.8509C9.93892 15.9235 7.54285 14.4127 5.56836 12.431C3.58678 10.4568 2.076 8.06109 1.14847 5.42219C0.786476 4.39221 1.11147 3.28524 1.85145 2.54526L2.88442 1.51128Z" stroke="#a3a3a3"/>
</svg>
